<svg width="761" height="500" viewBox="0 0 761 500" fill="none" xmlns="http://www.w3.org/2000/svg">
<path d="M402.653 453.595C442.044 484.446 489.56 500.711 538.151 499.976C586.743 499.242 633.822 481.547 672.405 449.518C710.987 417.488 739.019 372.83 752.342 322.166C765.664 271.503 763.568 217.534 746.364 168.264C729.16 118.994 697.764 77.0485 656.834 48.6486C615.904 20.2486 567.619 6.90739 519.143 10.6038C470.667 14.3003 424.581 34.8375 387.721 69.1691C350.861 103.501 325.191 149.798 314.518 201.193L372.815 215.42C380.666 177.614 399.549 143.558 426.663 118.304C453.776 93.0502 487.677 77.9432 523.336 75.2241C558.995 72.5051 594.512 82.3187 624.62 103.21C654.728 124.1 677.822 154.955 690.478 191.198C703.133 227.44 704.675 267.14 694.875 304.407C685.075 341.675 664.455 374.525 636.074 398.086C607.693 421.646 573.062 434.662 537.318 435.203C501.575 435.743 466.623 423.779 437.646 401.085L402.653 453.595Z" fill="#24CCAD"/>
<path fill-rule="evenodd" clip-rule="evenodd" d="M176.225 252.873L203.063 146.039C210.573 116.148 252.221 114.429 262.346 143.227L262.579 143.913L300.16 258.244L318.906 183.685L377.096 198.315L333.937 369.967C326.363 400.089 284.122 401.594 274.423 372.088L236.853 257.79L211.873 357.216C204.475 386.662 163.545 389.021 152.811 360.624L16.4883 0H80.6338L176.225 252.873Z" fill="#24CCAD"/>
<path d="M70.323 195.547C67.7606 202.871 65.6407 210.398 63.989 218.085C55.9463 255.516 59.4257 294.729 73.907 329.868C88.3884 365.008 113.096 394.19 144.34 413.057C175.583 431.924 211.689 439.464 247.263 434.551C282.838 429.638 315.976 412.536 341.727 385.799C367.479 359.061 384.463 324.122 390.145 286.198L449.147 296.333C441.423 347.889 418.333 395.387 383.325 431.736C348.317 468.084 303.269 491.333 254.907 498.012C206.545 504.69 157.462 494.441 114.987 468.792C72.5126 443.144 38.9239 403.472 19.2371 355.701C-0.449585 307.931 -5.17911 254.623 5.75464 203.738C12.305 173.253 24.2688 144.618 40.8064 119.299L70.323 195.547ZM83.3435 166.603C82.7924 167.589 82.2497 168.581 81.7166 169.578L80.9158 167.511L83.3435 166.603ZM212.182 16.4524C260.854 13.2599 309.184 27.0106 349.958 55.6497L317.182 109.153C287.19 88.086 251.638 77.9712 215.836 80.3196C182.944 82.4772 151.462 95.0482 125.34 116.33L102.535 55.3069C135.19 32.4993 172.949 19.026 212.182 16.4524Z" fill="white"/>
<path d="M603.313 110.49C611.038 114.682 618.446 119.589 625.447 125.178C635.431 133.147 644.404 142.356 652.202 152.565L574.108 377.014L573.854 377.721C562.852 407.436 520.417 407.215 509.892 377.036L463.295 243.418L448.049 302.496L419 295L389.953 287.503L426.651 145.293C435.056 112.722 480.601 110.832 491.677 142.594L541.968 286.802L603.313 110.49ZM686.185 54.8936C671.012 40.0895 654.011 27.5376 635.624 17.626L641.757 0H705.286L686.185 54.8936Z" fill="white"/>
</svg>
