<svg width="2192" height="345" viewBox="0 0 2192 345" fill="none" xmlns="http://www.w3.org/2000/svg">
<path d="M30.0081 41.1919L108.286 274.307C108.765 275.733 109.116 277.199 109.333 278.686C113.568 307.705 156.152 307.236 160.719 278.266C160.909 277.062 161.187 275.866 161.548 274.702L234.365 54.1758C239.5 38.6252 261.914 38.8094 266.784 54.4422L335.281 274.307C335.76 275.733 336.11 277.199 336.327 278.686C340.563 307.705 383.147 307.236 387.714 278.266C387.904 277.062 388.181 275.866 388.543 274.702L467.008 41.1912" stroke="white" stroke-width="60" stroke-linecap="round"/>
<line x1="567.013" y1="300.248" x2="567.013" y2="134.218" stroke="white" stroke-width="60" stroke-linecap="round"/>
<rect x="537.008" y="18.2224" width="60" height="60" rx="30" fill="white"/>
<path d="M1176.49 121.722V280.168C1176.49 291.487 1167.32 300.663 1156 300.663C1149.13 300.663 1142.73 297.226 1138.93 291.507L978.008 49.2224C970.482 35.7834 950.008 41.1258 950.008 56.5286V300.663" stroke="#24CCAD" stroke-width="60" stroke-linecap="round"/>
<path d="M687.888 328.742C679.088 328.742 672.341 326.396 667.648 321.702C662.955 316.716 660.608 309.676 660.608 300.582V134.262C660.608 125.169 662.955 118.276 667.648 113.582C672.341 108.889 678.941 106.542 687.448 106.542C695.955 106.542 702.555 108.889 707.248 113.582C711.941 118.276 714.288 125.169 714.288 134.262V164.182L709.448 153.182C715.901 137.636 725.875 125.902 739.368 117.982C753.155 109.769 768.701 105.662 786.008 105.662C803.315 105.662 817.541 108.889 828.688 115.342C839.835 121.796 848.195 131.622 853.768 144.822C859.341 157.729 862.128 174.156 862.128 194.102V300.582C862.128 309.676 859.781 316.716 855.088 321.702C850.395 326.396 843.648 328.742 834.848 328.742C826.048 328.742 819.155 326.396 814.168 321.702C809.475 316.716 807.128 309.676 807.128 300.582V196.742C807.128 180.022 803.901 167.849 797.448 160.222C791.288 152.596 781.608 148.782 768.408 148.782C752.275 148.782 739.368 153.916 729.688 164.182C720.301 174.156 715.608 187.502 715.608 204.222V300.582C715.608 319.356 706.368 328.742 687.888 328.742Z" fill="white"/>
<path d="M1176.15 121.561C1176.15 56.3386 1219.15 37.0608 1292.15 37.0608" stroke="#24CCAD" stroke-width="60"/>
<line x1="1291.01" y1="37.2224" x2="1457.01" y2="37.2224" stroke="#24CCAD" stroke-width="60" stroke-linecap="round"/>
<path d="M1355.51 300.222V48.2224" stroke="#24CCAD" stroke-width="60" stroke-linecap="round"/>
<path d="M1685.11 208.944C1704.65 199.783 1721.04 185.009 1732.22 166.49C1743.39 147.97 1748.85 126.537 1747.9 104.901C1746.95 83.265 1739.64 62.3976 1726.88 44.9377C1714.13 27.4777 1696.51 14.2094 1676.25 6.81066L1657.33 59.0925C1667.3 62.7325 1675.97 69.2602 1682.24 77.85C1688.52 86.4398 1692.11 96.706 1692.58 107.35C1693.05 117.995 1690.36 128.539 1684.86 137.65C1679.37 146.761 1671.3 154.03 1661.69 158.537L1685.11 208.944Z" fill="white"/>
<path d="M1529.08 37.2964L1672.01 37.2965M1529.08 181.222L1672.01 181.222" stroke="white" stroke-width="60" stroke-linecap="round"/>
<line x1="1523.87" y1="301.387" x2="1527.17" y2="184.363" stroke="white" stroke-width="60" stroke-linecap="round"/>
<path d="M1639.01 192.222C1700.01 297.722 1677.01 308.222 1864.01 308.222" stroke="white" stroke-width="60"/>
<path d="M2136.92 20.9263C2148.13 8.72509 2167.1 7.92092 2179.3 19.1301C2191.51 30.3394 2192.31 49.3173 2181.1 61.5185L2159.01 41.2224L2136.92 20.9263ZM1860.01 338.157H1830.01V278.157H1860.01V308.157V338.157ZM2159.01 41.2224L2181.1 61.5185C2182.14 60.3823 2182.41 59.9079 2180.06 63.1006C2178.38 65.3909 2176.23 68.3482 2173.29 72.371C2167.54 80.2236 2159.5 91.1184 2149.67 104.008C2130.03 129.743 2103.08 163.601 2072.53 197.373C2042.12 230.994 2007.43 265.326 1972.26 291.48C1938.13 316.863 1898.84 338.157 1860.01 338.157V308.157V278.157C1878.68 278.157 1904.72 266.937 1936.46 243.335C1967.16 220.505 1998.85 189.383 2028.03 157.123C2057.08 125.014 2082.92 92.5652 2101.97 67.6097C2111.47 55.1548 2119.25 44.609 2124.87 36.9309C2127.61 33.1883 2130.03 29.8578 2131.7 27.5883C2132.7 26.2213 2135.09 22.9153 2136.92 20.9263L2159.01 41.2224Z" fill="white"/>
<line x1="1938.33" y1="44.2133" x2="2162" y2="301.902" stroke="white" stroke-width="60" stroke-linecap="round"/>
<line x1="1830.01" y1="209.231" x2="1830.01" y2="43.2224" stroke="white" stroke-width="60" stroke-linecap="round"/>
</svg>
