<svg width="2192" height="471" viewBox="0 0 2192 471" fill="none" xmlns="http://www.w3.org/2000/svg">
<path d="M30.0081 41.1919L108.286 274.307C108.765 275.733 109.116 277.199 109.333 278.686C113.568 307.705 156.152 307.236 160.719 278.266C160.909 277.062 161.187 275.866 161.548 274.702L234.365 54.1758C239.5 38.6252 261.914 38.8094 266.784 54.4422L335.281 274.307C335.76 275.733 336.11 277.199 336.327 278.686C340.563 307.705 383.147 307.236 387.714 278.266C387.904 277.062 388.181 275.866 388.543 274.702L467.008 41.1912" stroke="white" stroke-width="60" stroke-linecap="round"/>
<line x1="567.013" y1="300.248" x2="567.013" y2="134.218" stroke="white" stroke-width="60" stroke-linecap="round"/>
<rect x="537.008" y="18.2224" width="60" height="60" rx="30" fill="white"/>
<path d="M1176.49 121.722V280.168C1176.49 291.487 1167.32 300.663 1156 300.663C1149.13 300.663 1142.73 297.226 1138.93 291.507L978.008 49.2224C970.482 35.7834 950.008 41.1258 950.008 56.5286V300.663" stroke="#24CCAD" stroke-width="60" stroke-linecap="round"/>
<path d="M687.888 328.742C679.088 328.742 672.341 326.396 667.648 321.702C662.955 316.716 660.608 309.676 660.608 300.582V134.262C660.608 125.169 662.955 118.276 667.648 113.582C672.341 108.889 678.941 106.542 687.448 106.542C695.955 106.542 702.555 108.889 707.248 113.582C711.941 118.276 714.288 125.169 714.288 134.262V164.182L709.448 153.182C715.901 137.636 725.875 125.902 739.368 117.982C753.155 109.769 768.701 105.662 786.008 105.662C803.315 105.662 817.541 108.889 828.688 115.342C839.835 121.796 848.195 131.622 853.768 144.822C859.341 157.729 862.128 174.156 862.128 194.102V300.582C862.128 309.676 859.781 316.716 855.088 321.702C850.395 326.396 843.648 328.742 834.848 328.742C826.048 328.742 819.155 326.396 814.168 321.702C809.475 316.716 807.128 309.676 807.128 300.582V196.742C807.128 180.022 803.901 167.849 797.448 160.222C791.288 152.596 781.608 148.782 768.408 148.782C752.275 148.782 739.368 153.916 729.688 164.182C720.301 174.156 715.608 187.502 715.608 204.222V300.582C715.608 319.356 706.368 328.742 687.888 328.742Z" fill="white"/>
<path d="M1176.15 121.561C1176.15 56.3386 1219.15 37.0608 1292.15 37.0608" stroke="#24CCAD" stroke-width="60"/>
<line x1="1291.01" y1="37.2224" x2="1457.01" y2="37.2224" stroke="#24CCAD" stroke-width="60" stroke-linecap="round"/>
<path d="M1355.51 300.222V48.2224" stroke="#24CCAD" stroke-width="60" stroke-linecap="round"/>
<path d="M1685.11 208.944C1704.65 199.783 1721.04 185.009 1732.22 166.49C1743.39 147.97 1748.85 126.537 1747.9 104.901C1746.95 83.265 1739.64 62.3976 1726.88 44.9377C1714.13 27.4777 1696.51 14.2094 1676.25 6.81066L1657.33 59.0925C1667.3 62.7325 1675.97 69.2602 1682.24 77.85C1688.52 86.4398 1692.11 96.706 1692.58 107.35C1693.05 117.995 1690.36 128.539 1684.86 137.65C1679.37 146.761 1671.3 154.03 1661.69 158.537L1685.11 208.944Z" fill="white"/>
<path d="M1529.08 37.2964L1672.01 37.2965M1529.08 181.222L1672.01 181.222" stroke="white" stroke-width="60" stroke-linecap="round"/>
<line x1="1523.87" y1="301.387" x2="1527.17" y2="184.363" stroke="white" stroke-width="60" stroke-linecap="round"/>
<path d="M1639.01 192.222C1700.01 297.722 1677.01 308.222 1864.01 308.222" stroke="white" stroke-width="60"/>
<path d="M2136.92 20.9263C2148.13 8.72509 2167.1 7.92092 2179.3 19.1301C2191.51 30.3394 2192.31 49.3173 2181.1 61.5185L2159.01 41.2224L2136.92 20.9263ZM1860.01 338.157H1830.01V278.157H1860.01V308.157V338.157ZM2159.01 41.2224L2181.1 61.5185C2182.14 60.3823 2182.41 59.9079 2180.06 63.1006C2178.38 65.3909 2176.23 68.3482 2173.29 72.371C2167.54 80.2236 2159.5 91.1184 2149.67 104.008C2130.03 129.743 2103.08 163.601 2072.53 197.373C2042.12 230.994 2007.43 265.326 1972.26 291.48C1938.13 316.863 1898.84 338.157 1860.01 338.157V308.157V278.157C1878.68 278.157 1904.72 266.937 1936.46 243.335C1967.16 220.505 1998.85 189.383 2028.03 157.123C2057.08 125.014 2082.92 92.5652 2101.97 67.6097C2111.47 55.1548 2119.25 44.609 2124.87 36.9309C2127.61 33.1883 2130.03 29.8578 2131.7 27.5883C2132.7 26.2213 2135.09 22.9153 2136.92 20.9263L2159.01 41.2224Z" fill="white"/>
<line x1="1938.33" y1="44.2133" x2="2162" y2="301.902" stroke="white" stroke-width="60" stroke-linecap="round"/>
<line x1="1830.01" y1="209.231" x2="1830.01" y2="43.2224" stroke="white" stroke-width="60" stroke-linecap="round"/>
<path d="M124.316 418.614C122.519 418.614 120.706 418.549 118.877 418.418C117.048 418.32 115.447 418.092 114.075 417.732V384.755C114.794 384.625 115.561 384.51 116.378 384.412C117.195 384.282 118.028 384.184 118.877 384.118C119.726 384.053 120.559 384.004 121.376 383.971C122.225 383.939 123.026 383.922 123.777 383.922C125.835 383.922 127.746 384.086 129.51 384.412C131.274 384.706 132.793 385.213 134.067 385.931C135.374 386.65 136.386 387.597 137.105 388.773C137.824 389.949 138.183 391.403 138.183 393.134C138.183 394.735 137.791 396.107 137.007 397.25C136.256 398.394 135.194 399.308 133.822 399.994C135.88 400.68 137.399 401.693 138.379 403.032C139.359 404.372 139.849 406.07 139.849 408.128C139.849 411.624 138.575 414.253 136.027 416.017C133.479 417.749 129.575 418.614 124.316 418.614ZM120.151 402.934V413.273C120.837 413.339 121.572 413.388 122.356 413.42C123.14 413.453 123.859 413.469 124.512 413.469C125.786 413.469 126.962 413.388 128.04 413.224C129.151 413.061 130.098 412.783 130.882 412.391C131.699 411.967 132.336 411.411 132.793 410.725C133.283 410.039 133.528 409.157 133.528 408.079C133.528 406.152 132.826 404.813 131.421 404.061C130.016 403.31 128.073 402.934 125.59 402.934H120.151ZM120.151 398.083H124.512C126.864 398.083 128.71 397.757 130.049 397.103C131.388 396.417 132.058 395.209 132.058 393.477C132.058 391.844 131.356 390.684 129.951 389.998C128.579 389.312 126.782 388.969 124.561 388.969C123.614 388.969 122.764 388.986 122.013 389.018C121.294 389.051 120.674 389.1 120.151 389.165V398.083ZM167.006 417.438C165.863 417.732 164.377 418.026 162.547 418.32C160.718 418.647 158.709 418.81 156.52 418.81C154.462 418.81 152.731 418.516 151.326 417.928C149.954 417.34 148.844 416.524 147.994 415.478C147.178 414.433 146.59 413.192 146.23 411.754C145.871 410.284 145.691 408.684 145.691 406.952V392.595H151.62V406.021C151.62 408.765 152.012 410.725 152.796 411.901C153.613 413.077 155.018 413.665 157.01 413.665C157.729 413.665 158.48 413.633 159.264 413.567C160.081 413.502 160.685 413.42 161.077 413.322V392.595H167.006V417.438ZM180.531 418.222H174.602V392.595H180.531V418.222ZM181.168 385.098C181.168 386.209 180.808 387.091 180.09 387.744C179.371 388.398 178.522 388.724 177.542 388.724C176.529 388.724 175.663 388.398 174.945 387.744C174.226 387.091 173.867 386.209 173.867 385.098C173.867 383.955 174.226 383.057 174.945 382.403C175.663 381.75 176.529 381.423 177.542 381.423C178.522 381.423 179.371 381.75 180.09 382.403C180.808 383.057 181.168 383.955 181.168 385.098ZM197.013 418.712C195.249 418.68 193.779 418.484 192.603 418.124C191.459 417.765 190.545 417.259 189.859 416.605C189.173 415.919 188.683 415.086 188.389 414.106C188.127 413.094 187.997 411.95 187.997 410.676V381.178L193.926 380.198V409.549C193.926 410.268 193.975 410.872 194.073 411.362C194.203 411.852 194.416 412.277 194.71 412.636C195.004 412.963 195.396 413.224 195.886 413.42C196.408 413.584 197.062 413.714 197.846 413.812L197.013 418.712ZM207.296 405.335C207.296 407.949 207.917 410.007 209.158 411.509C210.4 412.979 212.115 413.714 214.303 413.714C215.251 413.714 216.051 413.682 216.704 413.616C217.39 413.518 217.946 413.42 218.37 413.322V398.622C217.848 398.263 217.145 397.936 216.263 397.642C215.414 397.316 214.499 397.152 213.519 397.152C211.363 397.152 209.779 397.887 208.766 399.357C207.786 400.827 207.296 402.82 207.296 405.335ZM224.299 417.438C223.123 417.798 221.637 418.124 219.84 418.418C218.076 418.712 216.214 418.859 214.254 418.859C212.229 418.859 210.416 418.549 208.815 417.928C207.215 417.308 205.843 416.426 204.699 415.282C203.589 414.106 202.723 412.702 202.102 411.068C201.514 409.402 201.22 407.54 201.22 405.482C201.22 403.457 201.465 401.628 201.955 399.994C202.478 398.328 203.229 396.907 204.209 395.731C205.189 394.555 206.382 393.657 207.786 393.036C209.191 392.383 210.808 392.056 212.637 392.056C213.879 392.056 214.973 392.203 215.92 392.497C216.868 392.791 217.684 393.118 218.37 393.477V381.178L224.299 380.198V417.438ZM265.317 388.087C265.84 389.851 266.395 391.697 266.983 393.624C267.571 395.519 268.176 397.43 268.796 399.357C269.45 401.252 270.087 403.13 270.707 404.992C271.361 406.822 271.981 408.553 272.569 410.186C273.059 408.422 273.533 406.511 273.99 404.453C274.448 402.363 274.905 400.207 275.362 397.985C275.82 395.731 276.261 393.445 276.685 391.125C277.143 388.806 277.567 386.519 277.959 384.265H284.329C283.186 390.407 281.912 396.319 280.507 402.003C279.103 407.655 277.535 413.061 275.803 418.222H269.923C267.375 411.624 264.909 404.421 262.524 396.613C261.316 400.566 260.091 404.323 258.849 407.883C257.608 411.444 256.367 414.89 255.125 418.222H249.245C247.481 413.061 245.897 407.655 244.492 402.003C243.12 396.319 241.863 390.407 240.719 384.265H247.334C247.726 386.487 248.135 388.757 248.559 391.076C249.017 393.396 249.474 395.682 249.931 397.936C250.421 400.158 250.911 402.314 251.401 404.404C251.891 406.495 252.381 408.422 252.871 410.186C253.492 408.52 254.113 406.773 254.733 404.943C255.387 403.081 256.024 401.203 256.644 399.308C257.265 397.381 257.853 395.47 258.408 393.575C258.996 391.681 259.535 389.851 260.025 388.087H265.317ZM295.231 418.222H289.302V392.595H295.231V418.222ZM295.868 385.098C295.868 386.209 295.508 387.091 294.79 387.744C294.071 388.398 293.222 388.724 292.242 388.724C291.229 388.724 290.363 388.398 289.645 387.744C288.926 387.091 288.567 386.209 288.567 385.098C288.567 383.955 288.926 383.057 289.645 382.403C290.363 381.75 291.229 381.423 292.242 381.423C293.222 381.423 294.071 381.75 294.79 382.403C295.508 383.057 295.868 383.955 295.868 385.098ZM302.501 385.833L308.43 384.853V392.595H317.544V397.544H308.43V407.981C308.43 410.039 308.756 411.509 309.41 412.391C310.063 413.273 311.174 413.714 312.742 413.714C313.82 413.714 314.767 413.6 315.584 413.371C316.433 413.143 317.103 412.93 317.593 412.734L318.573 417.438C317.887 417.732 316.988 418.026 315.878 418.32C314.767 418.647 313.46 418.81 311.958 418.81C310.128 418.81 308.593 418.565 307.352 418.075C306.143 417.585 305.179 416.883 304.461 415.968C303.742 415.021 303.236 413.894 302.942 412.587C302.648 411.248 302.501 409.729 302.501 408.03V385.833ZM323.275 418.222V381.178L329.204 380.198V392.889C329.858 392.661 330.609 392.465 331.458 392.301C332.34 392.138 333.206 392.056 334.055 392.056C336.113 392.056 337.812 392.35 339.151 392.938C340.523 393.494 341.618 394.294 342.434 395.339C343.251 396.352 343.823 397.577 344.149 399.014C344.509 400.452 344.688 402.052 344.688 403.816V418.222H338.759V404.747C338.759 403.375 338.661 402.216 338.465 401.268C338.302 400.288 338.008 399.504 337.583 398.916C337.191 398.296 336.652 397.855 335.966 397.593C335.28 397.299 334.431 397.152 333.418 397.152C332.634 397.152 331.834 397.234 331.017 397.397C330.201 397.561 329.596 397.708 329.204 397.838V418.222H323.275ZM376.608 418.957C374.289 418.957 372.296 418.631 370.63 417.977C368.964 417.291 367.576 416.344 366.465 415.135C365.387 413.927 364.587 412.506 364.064 410.872C363.542 409.239 363.28 407.442 363.28 405.482V384.265H369.503V404.894C369.503 406.43 369.667 407.753 369.993 408.863C370.353 409.941 370.843 410.823 371.463 411.509C372.117 412.195 372.868 412.702 373.717 413.028C374.599 413.355 375.579 413.518 376.657 413.518C377.735 413.518 378.715 413.355 379.597 413.028C380.479 412.702 381.231 412.195 381.851 411.509C382.505 410.823 382.995 409.941 383.321 408.863C383.681 407.753 383.86 406.43 383.86 404.894V384.265H390.083V405.482C390.083 407.442 389.806 409.239 389.25 410.872C388.728 412.506 387.911 413.927 386.8 415.135C385.722 416.344 384.334 417.291 382.635 417.977C380.937 418.631 378.928 418.957 376.608 418.957ZM404.103 413.959C405.671 413.959 406.815 413.78 407.533 413.42C408.252 413.028 408.611 412.375 408.611 411.46C408.611 410.611 408.219 409.909 407.435 409.353C406.684 408.798 405.426 408.194 403.662 407.54C402.584 407.148 401.588 406.74 400.673 406.315C399.791 405.858 399.024 405.335 398.37 404.747C397.717 404.159 397.194 403.457 396.802 402.64C396.443 401.791 396.263 400.762 396.263 399.553C396.263 397.201 397.129 395.356 398.86 394.016C400.592 392.644 402.944 391.958 405.916 391.958C407.419 391.958 408.856 392.105 410.228 392.399C411.6 392.661 412.629 392.922 413.315 393.183L412.237 397.985C411.584 397.691 410.751 397.43 409.738 397.201C408.726 396.94 407.55 396.809 406.21 396.809C405.002 396.809 404.022 397.022 403.27 397.446C402.519 397.838 402.143 398.459 402.143 399.308C402.143 399.733 402.209 400.109 402.339 400.435C402.503 400.762 402.764 401.072 403.123 401.366C403.483 401.628 403.956 401.905 404.544 402.199C405.132 402.461 405.851 402.738 406.7 403.032C408.105 403.555 409.297 404.078 410.277 404.6C411.257 405.09 412.058 405.662 412.678 406.315C413.332 406.936 413.805 407.655 414.099 408.471C414.393 409.288 414.54 410.268 414.54 411.411C414.54 413.861 413.626 415.723 411.796 416.997C410 418.239 407.419 418.859 404.054 418.859C401.8 418.859 399.987 418.663 398.615 418.271C397.243 417.912 396.28 417.618 395.724 417.389L396.753 412.44C397.635 412.8 398.681 413.143 399.889 413.469C401.131 413.796 402.535 413.959 404.103 413.959ZM426.743 414.988C426.743 416.132 426.351 417.063 425.567 417.781C424.816 418.5 423.901 418.859 422.823 418.859C421.712 418.859 420.781 418.5 420.03 417.781C419.279 417.063 418.903 416.132 418.903 414.988C418.903 413.845 419.279 412.914 420.03 412.195C420.781 411.444 421.712 411.068 422.823 411.068C423.901 411.068 424.816 411.444 425.567 412.195C426.351 412.914 426.743 413.845 426.743 414.988ZM460.701 388.92C457.206 388.92 454.527 390.015 452.665 392.203C450.836 394.359 449.921 397.365 449.921 401.219C449.921 403.049 450.133 404.731 450.558 406.266C451.015 407.769 451.669 409.059 452.518 410.137C453.4 411.215 454.478 412.065 455.752 412.685C457.059 413.273 458.578 413.567 460.309 413.567C461.387 413.567 462.318 413.535 463.102 413.469C463.886 413.371 464.507 413.257 464.964 413.126V400.925H471.138V417.242C470.289 417.569 468.851 417.928 466.826 418.32C464.801 418.712 462.465 418.908 459.819 418.908C457.369 418.908 455.131 418.516 453.106 417.732C451.081 416.948 449.349 415.805 447.912 414.302C446.507 412.8 445.413 410.954 444.629 408.765C443.845 406.577 443.453 404.061 443.453 401.219C443.453 398.377 443.878 395.862 444.727 393.673C445.609 391.485 446.801 389.639 448.304 388.136C449.807 386.601 451.571 385.441 453.596 384.657C455.621 383.873 457.777 383.481 460.064 383.481C461.632 383.481 463.02 383.596 464.229 383.824C465.47 384.02 466.532 384.249 467.414 384.51C468.296 384.772 469.015 385.049 469.57 385.343C470.158 385.637 470.566 385.85 470.795 385.98L468.933 391.027C467.953 390.439 466.728 389.949 465.258 389.557C463.821 389.133 462.302 388.92 460.701 388.92ZM492.581 397.936C492.091 397.773 491.405 397.61 490.523 397.446C489.674 397.25 488.678 397.152 487.534 397.152C486.881 397.152 486.179 397.218 485.427 397.348C484.709 397.479 484.202 397.593 483.908 397.691V418.222H477.979V393.82C479.123 393.396 480.544 393.004 482.242 392.644C483.974 392.252 485.885 392.056 487.975 392.056C488.367 392.056 488.825 392.089 489.347 392.154C489.87 392.187 490.393 392.252 490.915 392.35C491.438 392.416 491.944 392.514 492.434 392.644C492.924 392.742 493.316 392.84 493.61 392.938L492.581 397.936ZM520.919 405.384C520.919 407.41 520.625 409.255 520.037 410.921C519.449 412.587 518.616 414.008 517.538 415.184C516.46 416.36 515.153 417.275 513.618 417.928C512.115 418.582 510.449 418.908 508.62 418.908C506.791 418.908 505.125 418.582 503.622 417.928C502.119 417.275 500.829 416.36 499.751 415.184C498.673 414.008 497.824 412.587 497.203 410.921C496.615 409.255 496.321 407.41 496.321 405.384C496.321 403.359 496.615 401.53 497.203 399.896C497.824 398.23 498.673 396.809 499.751 395.633C500.862 394.457 502.168 393.559 503.671 392.938C505.174 392.285 506.823 391.958 508.62 391.958C510.417 391.958 512.066 392.285 513.569 392.938C515.104 393.559 516.411 394.457 517.489 395.633C518.567 396.809 519.4 398.23 519.988 399.896C520.609 401.53 520.919 403.359 520.919 405.384ZM514.843 405.384C514.843 402.836 514.288 400.827 513.177 399.357C512.099 397.855 510.58 397.103 508.62 397.103C506.66 397.103 505.125 397.855 504.014 399.357C502.936 400.827 502.397 402.836 502.397 405.384C502.397 407.965 502.936 410.007 504.014 411.509C505.125 413.012 506.66 413.763 508.62 413.763C510.58 413.763 512.099 413.012 513.177 411.509C514.288 410.007 514.843 407.965 514.843 405.384ZM541.789 402.101C541.038 404.976 540.221 407.785 539.339 410.529C538.49 413.241 537.64 415.805 536.791 418.222H531.94C531.287 416.72 530.601 415.005 529.882 413.077C529.163 411.15 528.445 409.092 527.726 406.903C527.007 404.715 526.289 402.412 525.57 399.994C524.851 397.577 524.149 395.111 523.463 392.595H529.735C530.029 393.967 530.372 395.454 530.764 397.054C531.156 398.622 531.564 400.239 531.989 401.905C532.414 403.539 532.855 405.139 533.312 406.707C533.769 408.275 534.227 409.713 534.684 411.019C535.174 409.517 535.648 407.965 536.105 406.364C536.595 404.764 537.052 403.163 537.477 401.562C537.902 399.962 538.294 398.41 538.653 396.907C539.045 395.372 539.388 393.935 539.682 392.595H544.239C544.533 393.935 544.86 395.372 545.219 396.907C545.578 398.41 545.954 399.962 546.346 401.562C546.771 403.163 547.212 404.764 547.669 406.364C548.159 407.965 548.649 409.517 549.139 411.019C549.564 409.713 550.005 408.275 550.462 406.707C550.919 405.139 551.36 403.539 551.785 401.905C552.242 400.239 552.667 398.622 553.059 397.054C553.451 395.454 553.794 393.967 554.088 392.595H560.213C559.527 395.111 558.825 397.577 558.106 399.994C557.387 402.412 556.669 404.715 555.95 406.903C555.231 409.092 554.513 411.15 553.794 413.077C553.075 415.005 552.373 416.72 551.687 418.222H546.885C546.036 415.805 545.154 413.241 544.239 410.529C543.357 407.785 542.54 404.976 541.789 402.101ZM598.221 388.087C598.743 389.851 599.299 391.697 599.887 393.624C600.475 395.519 601.079 397.43 601.7 399.357C602.353 401.252 602.99 403.13 603.611 404.992C604.264 406.822 604.885 408.553 605.473 410.186C605.963 408.422 606.436 406.511 606.894 404.453C607.351 402.363 607.808 400.207 608.266 397.985C608.723 395.731 609.164 393.445 609.589 391.125C610.046 388.806 610.471 386.519 610.863 384.265H617.233C616.089 390.407 614.815 396.319 613.411 402.003C612.006 407.655 610.438 413.061 608.707 418.222H602.827C600.279 411.624 597.812 404.421 595.428 396.613C594.219 400.566 592.994 404.323 591.753 407.883C590.511 411.444 589.27 414.89 588.029 418.222H582.149C580.385 413.061 578.8 407.655 577.396 402.003C576.024 396.319 574.766 390.407 573.623 384.265H580.238C580.63 386.487 581.038 388.757 581.463 391.076C581.92 393.396 582.377 395.682 582.835 397.936C583.325 400.158 583.815 402.314 584.305 404.404C584.795 406.495 585.285 408.422 585.775 410.186C586.395 408.52 587.016 406.773 587.637 404.943C588.29 403.081 588.927 401.203 589.548 399.308C590.168 397.381 590.756 395.47 591.312 393.575C591.9 391.681 592.439 389.851 592.929 388.087H598.221ZM628.134 418.222H622.205V392.595H628.134V418.222ZM628.771 385.098C628.771 386.209 628.412 387.091 627.693 387.744C626.974 388.398 626.125 388.724 625.145 388.724C624.132 388.724 623.267 388.398 622.548 387.744C621.829 387.091 621.47 386.209 621.47 385.098C621.47 383.955 621.829 383.057 622.548 382.403C623.267 381.75 624.132 381.423 625.145 381.423C626.125 381.423 626.974 381.75 627.693 382.403C628.412 383.057 628.771 383.955 628.771 385.098ZM635.404 385.833L641.333 384.853V392.595H650.447V397.544H641.333V407.981C641.333 410.039 641.66 411.509 642.313 412.391C642.966 413.273 644.077 413.714 645.645 413.714C646.723 413.714 647.67 413.6 648.487 413.371C649.336 413.143 650.006 412.93 650.496 412.734L651.476 417.438C650.79 417.732 649.892 418.026 648.781 418.32C647.67 418.647 646.364 418.81 644.861 418.81C643.032 418.81 641.496 418.565 640.255 418.075C639.046 417.585 638.083 416.883 637.364 415.968C636.645 415.021 636.139 413.894 635.845 412.587C635.551 411.248 635.404 409.729 635.404 408.03V385.833ZM656.179 418.222V381.178L662.108 380.198V392.889C662.761 392.661 663.512 392.465 664.362 392.301C665.244 392.138 666.109 392.056 666.959 392.056C669.017 392.056 670.715 392.35 672.055 392.938C673.427 393.494 674.521 394.294 675.338 395.339C676.154 396.352 676.726 397.577 677.053 399.014C677.412 400.452 677.592 402.052 677.592 403.816V418.222H671.663V404.747C671.663 403.375 671.565 402.216 671.369 401.268C671.205 400.288 670.911 399.504 670.487 398.916C670.095 398.296 669.556 397.855 668.87 397.593C668.184 397.299 667.334 397.152 666.322 397.152C665.538 397.152 664.737 397.234 663.921 397.397C663.104 397.561 662.5 397.708 662.108 397.838V418.222H656.179ZM707.875 405.384C707.875 407.41 707.581 409.255 706.993 410.921C706.405 412.587 705.572 414.008 704.494 415.184C703.416 416.36 702.109 417.275 700.574 417.928C699.071 418.582 697.405 418.908 695.576 418.908C693.747 418.908 692.081 418.582 690.578 417.928C689.075 417.275 687.785 416.36 686.707 415.184C685.629 414.008 684.78 412.587 684.159 410.921C683.571 409.255 683.277 407.41 683.277 405.384C683.277 403.359 683.571 401.53 684.159 399.896C684.78 398.23 685.629 396.809 686.707 395.633C687.818 394.457 689.124 393.559 690.627 392.938C692.13 392.285 693.779 391.958 695.576 391.958C697.373 391.958 699.022 392.285 700.525 392.938C702.06 393.559 703.367 394.457 704.445 395.633C705.523 396.809 706.356 398.23 706.944 399.896C707.565 401.53 707.875 403.359 707.875 405.384ZM701.799 405.384C701.799 402.836 701.244 400.827 700.133 399.357C699.055 397.855 697.536 397.103 695.576 397.103C693.616 397.103 692.081 397.855 690.97 399.357C689.892 400.827 689.353 402.836 689.353 405.384C689.353 407.965 689.892 410.007 690.97 411.509C692.081 413.012 693.616 413.763 695.576 413.763C697.536 413.763 699.055 413.012 700.133 411.509C701.244 410.007 701.799 407.965 701.799 405.384ZM735.004 417.438C733.861 417.732 732.375 418.026 730.545 418.32C728.716 418.647 726.707 418.81 724.518 418.81C722.46 418.81 720.729 418.516 719.324 417.928C717.952 417.34 716.842 416.524 715.992 415.478C715.176 414.433 714.588 413.192 714.228 411.754C713.869 410.284 713.689 408.684 713.689 406.952V392.595H719.618V406.021C719.618 408.765 720.01 410.725 720.794 411.901C721.611 413.077 723.016 413.665 725.008 413.665C725.727 413.665 726.478 413.633 727.262 413.567C728.079 413.502 728.683 413.42 729.075 413.322V392.595H735.004V417.438ZM742.257 385.833L748.186 384.853V392.595H757.3V397.544H748.186V407.981C748.186 410.039 748.512 411.509 749.166 412.391C749.819 413.273 750.93 413.714 752.498 413.714C753.576 413.714 754.523 413.6 755.34 413.371C756.189 413.143 756.859 412.93 757.349 412.734L758.329 417.438C757.643 417.732 756.744 418.026 755.634 418.32C754.523 418.647 753.216 418.81 751.714 418.81C749.884 418.81 748.349 418.565 747.108 418.075C745.899 417.585 744.935 416.883 744.217 415.968C743.498 415.021 742.992 413.894 742.698 412.587C742.404 411.248 742.257 409.729 742.257 408.03V385.833ZM796.224 412.881V418.222H774.762V384.265H780.936V412.881H796.224ZM806.62 418.222H800.691V392.595H806.62V418.222ZM807.257 385.098C807.257 386.209 806.898 387.091 806.179 387.744C805.461 388.398 804.611 388.724 803.631 388.724C802.619 388.724 801.753 388.398 801.034 387.744C800.316 387.091 799.956 386.209 799.956 385.098C799.956 383.955 800.316 383.057 801.034 382.403C801.753 381.75 802.619 381.423 803.631 381.423C804.611 381.423 805.461 381.75 806.179 382.403C806.898 383.057 807.257 383.955 807.257 385.098ZM828.786 404.747C828.786 402.069 828.443 400.141 827.757 398.965C827.104 397.757 825.863 397.152 824.033 397.152C823.38 397.152 822.661 397.201 821.877 397.299C821.093 397.397 820.505 397.479 820.113 397.544V418.222H814.184V393.428C815.328 393.102 816.814 392.791 818.643 392.497C820.505 392.203 822.465 392.056 824.523 392.056C826.287 392.056 827.725 392.285 828.835 392.742C829.979 393.2 830.926 393.804 831.677 394.555C832.037 394.294 832.494 394.016 833.049 393.722C833.605 393.428 834.225 393.167 834.911 392.938C835.597 392.677 836.316 392.465 837.067 392.301C837.851 392.138 838.635 392.056 839.419 392.056C841.412 392.056 843.045 392.35 844.319 392.938C845.626 393.494 846.639 394.294 847.357 395.339C848.109 396.352 848.615 397.593 848.876 399.063C849.17 400.501 849.317 402.085 849.317 403.816V418.222H843.388V404.747C843.388 402.069 843.062 400.141 842.408 398.965C841.755 397.757 840.497 397.152 838.635 397.152C837.688 397.152 836.79 397.316 835.94 397.642C835.091 397.936 834.454 398.23 834.029 398.524C834.291 399.341 834.47 400.207 834.568 401.121C834.666 402.036 834.715 403.016 834.715 404.061V418.222H828.786V404.747ZM862.559 418.222H856.63V392.595H862.559V418.222ZM863.196 385.098C863.196 386.209 862.837 387.091 862.118 387.744C861.399 388.398 860.55 388.724 859.57 388.724C858.557 388.724 857.692 388.398 856.973 387.744C856.254 387.091 855.895 386.209 855.895 385.098C855.895 383.955 856.254 383.057 856.973 382.403C857.692 381.75 858.557 381.423 859.57 381.423C860.55 381.423 861.399 381.75 862.118 382.403C862.837 383.057 863.196 383.955 863.196 385.098ZM869.829 385.833L875.758 384.853V392.595H884.872V397.544H875.758V407.981C875.758 410.039 876.085 411.509 876.738 412.391C877.391 413.273 878.502 413.714 880.07 413.714C881.148 413.714 882.095 413.6 882.912 413.371C883.761 413.143 884.431 412.93 884.921 412.734L885.901 417.438C885.215 417.732 884.317 418.026 883.206 418.32C882.095 418.647 880.789 418.81 879.286 418.81C877.457 418.81 875.921 418.565 874.68 418.075C873.471 417.585 872.508 416.883 871.789 415.968C871.07 415.021 870.564 413.894 870.27 412.587C869.976 411.248 869.829 409.729 869.829 408.03V385.833ZM897.022 413.959C898.59 413.959 899.734 413.78 900.452 413.42C901.171 413.028 901.53 412.375 901.53 411.46C901.53 410.611 901.138 409.909 900.354 409.353C899.603 408.798 898.345 408.194 896.581 407.54C895.503 407.148 894.507 406.74 893.592 406.315C892.71 405.858 891.943 405.335 891.289 404.747C890.636 404.159 890.113 403.457 889.721 402.64C889.362 401.791 889.182 400.762 889.182 399.553C889.182 397.201 890.048 395.356 891.779 394.016C893.511 392.644 895.863 391.958 898.835 391.958C900.338 391.958 901.775 392.105 903.147 392.399C904.519 392.661 905.548 392.922 906.234 393.183L905.156 397.985C904.503 397.691 903.67 397.43 902.657 397.201C901.645 396.94 900.469 396.809 899.129 396.809C897.921 396.809 896.941 397.022 896.189 397.446C895.438 397.838 895.062 398.459 895.062 399.308C895.062 399.733 895.128 400.109 895.258 400.435C895.422 400.762 895.683 401.072 896.042 401.366C896.402 401.628 896.875 401.905 897.463 402.199C898.051 402.461 898.77 402.738 899.619 403.032C901.024 403.555 902.216 404.078 903.196 404.6C904.176 405.09 904.977 405.662 905.597 406.315C906.251 406.936 906.724 407.655 907.018 408.471C907.312 409.288 907.459 410.268 907.459 411.411C907.459 413.861 906.545 415.723 904.715 416.997C902.919 418.239 900.338 418.859 896.973 418.859C894.719 418.859 892.906 418.663 891.534 418.271C890.162 417.912 889.199 417.618 888.643 417.389L889.672 412.44C890.554 412.8 891.6 413.143 892.808 413.469C894.05 413.796 895.454 413.959 897.022 413.959ZM919.662 414.988C919.662 416.132 919.27 417.063 918.486 417.781C917.735 418.5 916.82 418.859 915.742 418.859C914.631 418.859 913.7 418.5 912.949 417.781C912.198 417.063 911.822 416.132 911.822 414.988C911.822 413.845 912.198 412.914 912.949 412.195C913.7 411.444 914.631 411.068 915.742 411.068C916.82 411.068 917.735 411.444 918.486 412.195C919.27 412.914 919.662 413.845 919.662 414.988Z" fill="white"/>
</svg>
